# xmcd
#
# Track frame offsets:
#	150
#	14577
#	29826
#	43618
#	56421
#	69404
#	83374
#	96371
#	107204
#	122114
#	136576
#	155132
#	178436
#
# Disc length: 2562 seconds
#
# Revision: 1
# Processed by: cddbd v1.5.2PL0 Copyright (c) Steve Scherf et al.
# Submitted via: audiograbber 1.83.01
#
DISCID=b40a000d
DTITLE=Björgvin Halldórssin - Hjartagosarnir
DYEAR=2009
DGENRE=Country
TTITLE0=Þetta reddast allt
TTITLE1=Svarta rósin frá San Fernando
TTITLE2=Ég elska þig svo heitt
TTITLE3=Máninn lokkar
TTITLE4=Fjórar áttir
TTITLE5=Brúðguminn
TTITLE6=Vertu velkominn
TTITLE7=Þó ég ætti tvær
TTITLE8=Þar sem næturhúm blátt
TTITLE9=Í draumi
TTITLE10=Hótel Sorg
TTITLE11=Ef flogið ég gæti
TTITLE12=Pledging my love
EXTD=
EXTT0=
EXTT1=
EXTT2=
EXTT3=
EXTT4=
EXTT5=
EXTT6=
EXTT7=
EXTT8=
EXTT9=
EXTT10=
EXTT11=
EXTT12=
PLAYORDER=
